<svg aria-hidden="true" style="position:absolute;width:0;height:0;overflow:hidden" xmlns="http://www.w3.org/2000/svg"><defs>
<symbol id="icon-inst" viewBox="0 0 32 32"><path fill="#fafafa" style="fill:var(--color1, #fafafa)" d="M15.534 8.522c-4.321 0-7.806 3.454-7.806 7.737s3.485 7.737 7.806 7.737 7.806-3.454 7.806-7.737-3.485-7.736-7.806-7.736zm0 12.767c-2.792 0-5.075-2.256-5.075-5.03s2.276-5.03 5.075-5.03c2.799 0 5.075 2.256 5.075 5.03s-2.283 5.03-5.075 5.03zm9.945-13.083c0 1.003-.815 1.805-1.821 1.805-1.012 0-1.821-.808-1.821-1.805s.815-1.805 1.821-1.805 1.821.808 1.821 1.805zm5.17 1.831c-.115-2.417-.673-4.558-2.459-6.323-1.78-1.764-3.94-2.316-6.379-2.437-2.514-.141-10.048-.141-12.561 0-2.432.114-4.592.667-6.379 2.431S.534 7.613.412 10.031c-.143 2.491-.143 9.958 0 12.45.116 2.417.673 4.558 2.459 6.322s3.94 2.316 6.379 2.438c2.514.141 10.048.141 12.561 0 2.439-.114 4.599-.667 6.379-2.438 1.78-1.764 2.337-3.905 2.459-6.322.143-2.491.143-9.952 0-12.443zm-3.247 15.117c-.53 1.32-1.556 2.336-2.894 2.868-2.004.788-6.759.606-8.974.606s-6.977.175-8.974-.606c-1.332-.525-2.357-1.542-2.894-2.868-.795-1.986-.611-6.7-.611-8.895s-.177-6.915.611-8.895c.53-1.32 1.556-2.336 2.894-2.868 2.004-.788 6.76-.606 8.974-.606s6.977-.175 8.974.606c1.331.525 2.357 1.542 2.894 2.868.795 1.986.611 6.7.611 8.895s.183 6.915-.611 8.895z"/></symbol>
<symbol id="icon-twitter" viewBox="0 0 40 32"><path fill="#fafafa" style="fill:var(--color1, #fafafa)" d="M34.513 8.925c.024.335.024.671.024 1.006 0 10.23-7.856 22.018-22.214 22.018-4.423 0-8.533-1.27-11.989-3.474.628.072 1.233.096 1.885.096 3.65 0 7.01-1.222 9.693-3.306-3.432-.072-6.309-2.3-7.3-5.367.483.072.967.12 1.475.12.701 0 1.402-.096 2.055-.263-3.577-.719-6.261-3.833-6.261-7.595v-.096c1.039.575 2.248.934 3.529.982-2.103-1.39-3.481-3.761-3.481-6.445 0-1.437.387-2.755 1.064-3.905 3.843 4.696 9.621 7.762 16.099 8.098-.121-.575-.193-1.174-.193-1.773 0-4.265 3.481-7.738 7.808-7.738 2.248 0 4.278.934 5.705 2.444 1.765-.335 3.457-.982 4.955-1.869-.58 1.797-1.813 3.306-3.432 4.264 1.571-.168 3.094-.599 4.496-1.198-1.063 1.533-2.393 2.899-3.916 4.001z"/></symbol>
<symbol id="icon-facebook" viewBox="0 0 32 32"><path fill="#fafafa" style="fill:var(--color1, #fafafa)" d="M31 16.463C31 7.976 24.062 1.1 15.5 1.1S0 7.976 0 16.463c0 7.668 5.668 14.024 13.078 15.177V20.904H9.14v-4.441h3.938v-3.385c0-3.85 2.312-5.977 5.854-5.977 1.696 0 3.47.3 3.47.3v3.779h-1.955c-1.925 0-2.526 1.184-2.526 2.399v2.884h4.299l-.688 4.441h-3.611V31.64c7.41-1.154 13.078-7.509 13.078-15.177z"/></symbol>
<symbol id="icon-exterior" viewBox="0 0 37 32"><path fill="none" stroke="#fff" style="stroke:var(--color2, #fff)" stroke-linejoin="round" stroke-linecap="round" stroke-width="1.1228" d="m18.238 26.786 12.373-10.623 5.303 4.553-12.373 10.623-5.303-4.553zM28.844 17.681 26.193 6.299.562.988l6.187 22.004 13.257 2.276 8.838-7.588zM.561.988 13.97 12.5"/><path fill="none" stroke="#fff" style="stroke:var(--color2, #fff)" stroke-linejoin="round" stroke-linecap="round" stroke-width="1.1228" d="M16.47 17.681c1.953 0 3.535-1.359 3.535-3.035s-1.583-3.035-3.535-3.035c-1.953 0-3.535 1.359-3.535 3.035s1.583 3.035 3.535 3.035z"/></symbol>
<symbol id="icon-interior" viewBox="0 0 33 32"><path fill="none" stroke="#fff" style="stroke:var(--color2, #fff)" stroke-linejoin="round" stroke-linecap="round" stroke-width="1.1228" d="M.561 11.287 16.47.561l15.909 10.726v16.855c0 .813-.372 1.592-1.035 2.167s-1.562.898-2.5.898H4.097c-.938 0-1.837-.323-2.5-.898S.562 28.955.562 28.142V11.287z"/><path fill="none" stroke="#fff" style="stroke:var(--color2, #fff)" stroke-linejoin="round" stroke-linecap="round" stroke-width="1.1228" d="M11.167 31.207V15.884h10.606v15.323"/></symbol>
<symbol id="icon-planning" viewBox="0 0 30 32"><path fill="none" stroke="#fff" style="stroke:var(--color2, #fff)" stroke-linejoin="round" stroke-linecap="round" stroke-width="1.1228" d="M18.238.561H4.097c-.938 0-1.837.323-2.5.898S.562 2.813.562 3.626v24.516c0 .813.372 1.592 1.035 2.167s1.562.898 2.5.898h21.212c.938 0 1.837-.323 2.5-.898s1.035-1.354 1.035-2.167V9.755L18.238.561z"/><path fill="none" stroke="#fff" style="stroke:var(--color2, #fff)" stroke-linejoin="round" stroke-linecap="round" stroke-width="1.1228" d="M18.238.561v9.194h10.606M21.773 17.416H7.632M21.773 23.546H7.632M11.167 11.287H7.632"/></symbol>
<symbol id="icon-search" viewBox="0 0 36 32"><path d="m35.866 27.014-7.081-6.084c-.32-.275-.753-.427-1.207-.427H26.42c1.96-2.154 3.125-4.863 3.125-7.811C29.545 5.681 22.933 0 14.772 0S-.001 5.681-.001 12.692s6.612 12.692 14.773 12.692c3.43 0 6.584-1.001 9.091-2.685v.995c0 .391.178.763.497 1.037l7.081 6.084c.668.574 1.747.574 2.408 0l2.01-1.727c.668-.574.668-1.501.007-2.075zm-21.093-6.511c-5.021 0-9.091-3.49-9.091-7.811 0-4.314 4.063-7.811 9.091-7.811 5.021 0 9.091 3.49 9.091 7.811 0 4.314-4.062 7.811-9.091 7.811z"/></symbol></defs></svg>